<svg id="Слой_1" data-name="Слой 1" xmlns="http://www.w3.org/2000/svg" viewBox="0 0 910.33 813.67"><defs><style>.cls-1{fill:#682888;}.cls-2{fill:#3f006b;}.cls-3{fill:#ff6c0c;}</style></defs><title>Монтажная область 1</title><rect class="cls-1" x="462.6" y="48.28" width="352.58" height="365.3" rx="12" ry="12"/><circle class="cls-2" cx="638.31" cy="228.87" r="133.94"/><path class="cls-3" d="M674.75,247.68c14.66.63,26.33,11.52,26.33,24.86s-11.67,24.24-26.33,24.86l-180.54,0c-10.36,0-18.75,7.55-18.75,16.87s8.4,16.87,18.75,16.87H674.75c36,0,65.17-26.25,65.17-58.64s-29.18-58.64-65.17-58.64l-71.71.27c-14.66-.63-26.33-11.52-26.33-24.86s11.67-24.24,26.33-24.86l180.54,0c10.36,0,18.75-7.55,18.75-16.87s-8.4-16.87-18.75-16.87H603c-36,0-65.17,26.25-65.17,58.64S567,248,603,248Z"/><path class="cls-3" d="M240.54,143.66c14.66.63,26.33,11.52,26.33,24.86s-11.67,24.24-26.33,24.86L60,193.41c-10.36,0-18.75,7.55-18.75,16.87s8.4,16.87,18.75,16.87H240.54c36,0,65.17-26.25,65.17-58.64s-29.18-58.64-65.17-58.64l-71.71.27c-14.66-.63-26.33-11.52-26.33-24.86s11.67-24.24,26.33-24.86l180.54,0c10.36,0,18.75-7.55,18.75-16.87s-8.4-16.87-18.75-16.87H168.83c-36,0-65.17,26.25-65.17,58.64s29.18,58.64,65.17,58.64Z"/><path class="cls-1" d="M169.41,314.42c-14.66.63-26.33,11.52-26.33,24.86s11.67,24.24,26.33,24.86l71.71-.27c36,0,65.17,26.25,65.17,58.64s-29.18,58.64-65.17,58.64H118.25A134,134,0,0,0,322.12,314.39Z"/><path class="cls-2" d="M241.12,447.37c14.66-.63,26.33-11.52,26.33-24.86s-11.67-24.24-26.33-24.86l-71.71.27c-36,0-65.17-26.25-65.17-58.64s29.18-58.64,65.17-58.64H295.77a133.46,133.46,0,0,0-91.08-35.75c-74,0-133.94,70-133.94,143.94,0,25.06,6.89,38.5,18.86,58.56Z"/><circle class="cls-2" cx="629.5" cy="637.3" r="133.94"/><path class="cls-3" d="M665.94,656.11c14.66.63,26.33,11.52,26.33,24.86s-11.67,24.24-26.33,24.86l-180.54,0c-10.36,0-18.75,7.55-18.75,16.87s8.4,16.87,18.75,16.87H665.94c36,0,65.17-26.25,65.17-58.64s-29.18-58.64-65.17-58.64l-71.71.27c-14.66-.63-26.33-11.52-26.33-24.86s11.67-24.24,26.33-24.86l180.54,0c10.36,0,18.75-7.55,18.75-16.87s-8.4-16.87-18.75-16.87H594.23c-36,0-65.17,26.25-65.17,58.64s29.18,58.64,65.17,58.64Z"/><path class="cls-2" d="M266.87,708.12c0-13.35-11.67-24.24-26.33-24.86l-71.71.27c-36,0-65.17-26.25-65.17-58.64s29.18-58.64,65.17-58.64H295.19A133.94,133.94,0,0,0,89,733l151.51,0C255.2,732.36,266.87,721.47,266.87,708.12Z"/><path class="cls-2" d="M142.5,624.89c0,13.35,11.67,24.24,26.33,24.86l71.71-.27c36,0,65.17,26.25,65.17,58.64s-29.18,58.64-65.17,58.64H117.67A134,134,0,0,0,321.54,600l-152.71,0C154.17,600.66,142.5,611.55,142.5,624.89Z"/><path class="cls-3" d="M295.19,566.26H168.83c-36,0-65.17,26.25-65.17,58.64s29.18,58.64,65.17,58.64l71.71-.27c14.66.63,26.33,11.52,26.33,24.86S255.2,732.36,240.54,733L89,733a134.58,134.58,0,0,0,28.64,33.75H240.54c36,0,65.17-26.25,65.17-58.64s-29.18-58.64-65.17-58.64l-71.71.27c-14.66-.63-26.33-11.52-26.33-24.86s11.67-24.24,26.33-24.86l152.71,0A134.46,134.46,0,0,0,295.19,566.26Z"/></svg>