<svg xmlns="http://www.w3.org/2000/svg" viewBox="0 0 326.88 200.5"><defs><style>.cls-1{fill:#ff6c0c;}</style></defs><title>Ресурс 1</title><g id="Слой_2" data-name="Слой 2"><g id="Слой_1-2" data-name="Слой 1"><path class="cls-1" d="M199.29,117c14.66.63,26.33,11.52,26.33,24.86S214,166.1,199.29,166.73l-180.54,0C8.4,166.75,0,174.31,0,183.63S8.4,200.5,18.75,200.5H199.29c36,0,65.17-26.25,65.17-58.64s-29.18-58.64-65.17-58.64l-71.71.27c-14.66-.63-26.33-11.52-26.33-24.86s11.67-24.24,26.33-24.86l180.54,0c10.36,0,18.75-7.55,18.75-16.87S318.48,0,308.12,0H127.58c-36,0-65.17,26.25-65.17,58.64s29.18,58.64,65.17,58.64Z"/></g></g></svg>