<svg xmlns="http://www.w3.org/2000/svg" viewBox="0 0 326.88 267.88"><defs><style>.cls-1{fill:#3f006b;}.cls-2{fill:#ff6c0c;}</style></defs><title>Ресурс 5</title><g id="Слой_2" data-name="Слой 2"><g id="Слой_1-2" data-name="Слой 1"><circle class="cls-1" cx="162.86" cy="133.94" r="133.94"/><path class="cls-2" d="M199.29,152.75c14.66.63,26.33,11.52,26.33,24.86S214,201.85,199.29,202.48l-180.54,0C8.4,202.5,0,210.06,0,219.38s8.4,16.87,18.75,16.87H199.29c36,0,65.17-26.25,65.17-58.64S235.28,119,199.29,119l-71.71.27c-14.66-.63-26.33-11.52-26.33-24.86s11.67-24.24,26.33-24.86l180.54,0c10.36,0,18.75-7.55,18.75-16.87s-8.4-16.87-18.75-16.87H127.58c-36,0-65.17,26.25-65.17,58.64S91.59,153,127.58,153Z"/></g></g></svg>