<svg xmlns="http://www.w3.org/2000/svg" viewBox="0 0 267.88 267.88"><defs><style>.cls-1{fill:#3f006b;}.cls-2{fill:#ff6c0c;}</style></defs><title>Ресурс 8</title><g id="Слой_2" data-name="Слой 2"><g id="Слой_1-2" data-name="Слой 1"><path class="cls-1" d="M196.71,177.61c0-13.35-11.67-24.24-26.33-24.86L98.67,153c-36,0-65.17-26.25-65.17-58.64S62.68,35.75,98.67,35.75H225A133.94,133.94,0,0,0,18.86,202.5l151.51,0C185,201.85,196.71,191,196.71,177.61Z"/><path class="cls-1" d="M72.33,94.39c0,13.35,11.67,24.24,26.33,24.86l71.71-.27c36,0,65.17,26.25,65.17,58.64s-29.18,58.64-65.17,58.64H47.51A134,134,0,0,0,251.38,69.5l-152.71,0C84,70.15,72.33,81,72.33,94.39Z"/><path class="cls-2" d="M225,35.75H98.67c-36,0-65.17,26.25-65.17,58.64S62.68,153,98.67,153l71.71-.27c14.66.63,26.33,11.52,26.33,24.86S185,201.85,170.38,202.48l-151.51,0a134.58,134.58,0,0,0,28.64,33.75H170.38c36,0,65.17-26.25,65.17-58.64S206.37,119,170.38,119l-71.71.27C84,118.62,72.33,107.73,72.33,94.39S84,70.15,98.67,69.52l152.71,0A134.46,134.46,0,0,0,225,35.75Z"/></g></g></svg>