<svg xmlns="http://www.w3.org/2000/svg" viewBox="0 0 352.58 365.3"><defs><style>.cls-1{fill:#682888;}.cls-2{fill:#3f006b;}.cls-3{fill:#ff6c0c;}</style></defs><title>Ресурс 9</title><g id="Слой_2" data-name="Слой 2"><g id="Слой_1-2" data-name="Слой 1"><rect class="cls-1" width="352.58" height="365.3" rx="12" ry="12"/><circle class="cls-2" cx="175.71" cy="180.59" r="133.94"/><path class="cls-3" d="M293.1,70.15"/><path class="cls-3" d="M186.48,200.08"/><path class="cls-3" d="M212.14,199.4c14.66.63,26.33,11.52,26.33,24.86s-11.67,24.24-26.33,24.86l-180.54,0c-10.36,0-18.75,7.55-18.75,16.87s8.4,16.87,18.75,16.87H212.14c36,0,65.17-26.25,65.17-58.64s-29.18-58.64-65.17-58.64l-71.71.27c-14.66-.63-26.33-11.52-26.33-24.86s11.67-24.24,26.33-24.86l180.54,0c10.36,0,18.75-7.55,18.75-16.87S331.33,82.4,321,82.4H140.44c-36,0-65.17,26.25-65.17,58.64s29.18,58.64,65.17,58.64Z"/></g></g></svg>